<svg xmlns="http://www.w3.org/2000/svg" width="512" height="512" viewBox="0 0 512 512"><path fill="#FFF" fill-rule="evenodd" d="M420.331347,84.0662053 L452.495762,102.780047 C473.841237,115.061005 486.999407,137.576095 486.704079,162.430416 L486.704079,349.569706 C486.704079,374.131622 473.548834,396.939116 452.203358,409.220075 L353.370884,466.23881 L290.210208,502.789281 C268.864733,515.07024 242.840797,515.07024 221.495322,502.789281 L122.662848,445.770546 L353.663288,312.434427 L353.663288,276.76029 L91.6680479,427.933916 L59.5036332,409.220075 C38.158158,396.939116 25,374.131622 25,349.569706 L25,312.142023 L284.94694,162.430416 L298.10511,154.827918 L353.663288,122.663503 L420.331347,84.0662053 Z M120.616021,67.3991904 L254.244544,144.301382 L25,276.467886 L25,162.138012 C25,137.576095 38.158158,115.061005 59.2112294,102.780047 L120.616021,67.3991904 Z M221.495614,9.21072314 C242.840797,-3.07024105 268.865025,-3.07024105 290.2105,9.21072314 L353.663288,45.1765038 L389.336548,65.9371715 L353.663288,86.6978392 L284.947232,126.172348 L151.611113,49.2701566 Z"/></svg>