<svg xmlns="http://www.w3.org/2000/svg" width="512" height="512" viewBox="0 0 512 512"><path fill="#FFF" fill-rule="evenodd" d="M297.360224,3.12351416 C322.908643,7.21851379 347.435277,14.7260335 370.59925,26.6698054 C418.630311,51.5809077 456.443948,87.0713467 481.990678,135.528609 C496.639497,163.511317 506.17728,193.200097 509.923965,224.253651 C514.350713,260.767564 510.946172,296.940178 500.044038,332.088896 C487.439633,372.015376 466.319652,407.164093 436.684094,436.854141 C400.576107,472.686301 357.654813,495.888712 307.920214,506.469823 C290.889852,509.878261 273.518678,511.926833 256.147049,511.585181 L256.147959,511.935674 C243.884853,512.273594 231.962202,511.251387 219.698673,509.544892 C186.65604,504.767552 155.657399,494.190666 127.043203,476.783577 C63.6828372,438.564859 23.1459477,382.941587 6.4542774,309.914183 C2.70716188,293.533948 1.00393038,276.812836 1.00393038,260.091302 C0.663284136,193.206433 22.4646594,134.511049 66.7486137,84.6885904 C105.241892,41.6910541 152.932077,15.4147561 209.138683,4.49471205 C224.806774,1.42379653 240.474866,-0.282421286 256.142957,0.399498845 L256.142046,0.0522604219 C270.108689,-0.288990322 283.734457,1.07601223 297.360224,3.12351416 Z M256.142,76.842 C255.466629,77.1812819 254.785298,77.5221584 254.103968,78.2047561 C244.906638,84.6885904 235.709309,91.5137236 226.852433,98.6797332 C206.754237,115.059968 187.678247,132.463678 171.667612,153.279954 C150.207177,180.921363 135.899656,211.292741 133.856087,247.124056 C132.83388,264.186466 134.877872,280.907578 140.328094,296.946514 C153.613407,336.872994 194.831585,378.164247 252.741306,379.187721 C256.147959,379.187721 256.82929,379.870319 256.82929,383.624185 C256.730436,388.67126 256.660249,395.182059 256.610417,401.883162 L256.600395,403.271895 L256.590937,404.663553 L256.582027,406.055629 C256.580587,406.287537 256.579168,406.519358 256.577772,406.75104 L256.569654,408.139044 C256.51331,418.068449 256.496043,427.54738 256.490752,432.42455 L256.490088,433.074803 C256.48999,433.178061 256.489897,433.278727 256.48981,433.376747 L256.489003,434.422664 C256.488953,434.498685 256.488908,434.571852 256.488867,434.642113 L256.48824,435.251869 C256.817475,435.021318 257.292956,434.67616 257.504707,434.463359 C284.075333,415.695299 309.282876,395.220322 331.084187,370.65018 C345.391285,354.611666 357.654813,337.549256 366.170812,317.756454 C378.093464,289.774169 382.862356,261.108863 376.730803,230.737485 C365.830358,175.455089 316.436636,134.163836 259.548699,132.798641 C256.482884,132.798641 256.15337,130.742668 256.134896,129.995042 L256.134282,129.883128 C256.135715,129.784483 256.142046,129.727373 256.142046,129.727373 L256.142,76.842 Z"/></svg>